# xmcd
#
# Track frame offsets: 
#        150
#        13708
#        24158
#        36705
#        48607
#        61482
#        73248
#        86769
#        101999
#        113436
#        124959
#        135915
#        147688
#        159649
#        172678
#        187156
#        200298
#        212016
#        223615
#        234534
#        247211
#        259432
#        272159
#        285302
#        296792
#
# Disc length: 4125 seconds
#
# Revision: 0
# Processed by: cddbd v1.5.2PL0 Copyright (c) Steve Scherf et al.
# Submitted via: ExactAudioCopyFreeDBPlugin 1.0
#
DISCID=91101b19
DTITLE=B.B. King - The Complete Singles 1949-62 Disk 3
DYEAR=1900
DGENRE=Blues
TTITLE0=Boogie Rock
TTITLE1=Talkin' The Blues
TTITLE2=Ten Long Years
TTITLE3=What Can I Do?
TTITLE4=I'm Cracking Up Over You
TTITLE5=Ruby Lee
TTITLE6=Crying Won't Help You
TTITLE7=Can't We Talk It Over
TTITLE8=Sixteen Tons
TTITLE9=Did You Ever Love A Woman
TTITLE10=Let's Do The Boogie
TTITLE11=Dark Is The Night Pt.1
TTITLE12=Dark Is The Night Pt 2
TTITLE13=Bad Luck
TTITLE14=Sweet Little Angel
TTITLE15=On My Word Of Honor
TTITLE16=Bim Bam
TTITLE17=Early In The Morning
TTITLE18=You Don't Know
TTITLE19=How Do I Love You
TTITLE20=You Can't Fool My Heart
TTITLE21=I Want To Get Married
TTITLE22=Troubles, Troubles, Troubles
TTITLE23=Quit My Baby
TTITLE24=Be Careful With A Fool
EXTD=
EXTT0=
EXTT1=
EXTT2=
EXTT3=
EXTT4=
EXTT5=
EXTT6=
EXTT7=
EXTT8=
EXTT9=
EXTT10=
EXTT11=
EXTT12=
EXTT13=
EXTT14=
EXTT15=
EXTT16=
EXTT17=
EXTT18=
EXTT19=
EXTT20=
EXTT21=
EXTT22=
EXTT23=
EXTT24=
PLAYORDER=
